<svg xmlns="http://www.w3.org/2000/svg" xmlns:xlink="http://www.w3.org/1999/xlink" width="173.799" height="168.805" viewBox="0 0 173.799 168.805">
  <defs>
    <linearGradient id="linear-gradient" y1="0.5" x2="1" y2="0.5" gradientUnits="objectBoundingBox">
      <stop offset="0" stop-color="#f9cfb9"/>
      <stop offset="0.21" stop-color="#e7b9a0"/>
      <stop offset="0.47" stop-color="#f6d7c5"/>
      <stop offset="0.69" stop-color="#e9bca4"/>
      <stop offset="0.86" stop-color="#d69f84"/>
      <stop offset="1" stop-color="#e0ab92"/>
    </linearGradient>
    <linearGradient id="linear-gradient-2" y1="0.5" x2="1" y2="0.5" gradientUnits="objectBoundingBox">
      <stop offset="0" stop-color="#edaa7a"/>
      <stop offset="0.21" stop-color="#edaa7a"/>
      <stop offset="0.47" stop-color="#f4c29f"/>
      <stop offset="0.7" stop-color="#edaa7a"/>
      <stop offset="0.86" stop-color="#edaa7a"/>
      <stop offset="1" stop-color="#edaa7a"/>
    </linearGradient>
    <linearGradient id="linear-gradient-3" y1="0.5" x2="1" y2="0.5" gradientUnits="objectBoundingBox">
      <stop offset="0" stop-color="#f8ccb2" stop-opacity="0"/>
      <stop offset="0.5" stop-color="#c08368" stop-opacity="0.302"/>
      <stop offset="1" stop-color="#ffdfc6" stop-opacity="0"/>
    </linearGradient>
    <radialGradient id="radial-gradient" cx="0.5" cy="0.5" r="0.5" gradientUnits="objectBoundingBox">
      <stop offset="0" stop-color="#f7d0b4"/>
      <stop offset="1" stop-color="#f0b489"/>
    </radialGradient>
    <filter id="Path_155823" x="40.708" y="0" width="95.524" height="130.31" filterUnits="userSpaceOnUse">
      <feOffset dy="2" input="SourceAlpha"/>
      <feGaussianBlur stdDeviation="1" result="blur"/>
      <feFlood flood-opacity="0.122"/>
      <feComposite operator="in" in2="blur"/>
      <feComposite in="SourceGraphic"/>
    </filter>
  </defs>
  <g id="Face" transform="translate(0 1)">
    <path id="Path_155820" data-name="Path 155820" d="M0,483.111l19.782-8.755,11.14-4.482,13.539-4.607,7.6-2.633,4.426-1.975s2.278-.136,3.161-4.221l.622-29.181L86.1,419.41l31.153,7.282v27.5a6.98,6.98,0,0,0,6.192,7.585l22.963,7.773,27.389,13v9.184H0v-8.609Z" transform="translate(0 -323.926)" fill="url(#linear-gradient)"/>
    <path id="Path_155821" data-name="Path 155821" d="M0,483.111l19.782-8.755,11.14-4.482,13.539-4.607,7.6-2.633,4.426-1.975s2.278-.136,3.161-4.221l.622-29.181L86.1,419.41l31.153,7.282v27.5a6.98,6.98,0,0,0,6.192,7.585l22.963,7.773,27.389,13v9.184H0v-8.609Z" transform="translate(0 -323.926)" fill="url(#linear-gradient-2)"/>
    <path id="Path_155822" data-name="Path 155822" d="M60.983,440.3l-1.927,43.8s-16.62,6.864-15.5,7.46h87.969c2.64-1.087-15.366-7.188-14.442-9.56l-.472-44.55c1.164-2.988.251-16.476-3.453-16.476H63.272c-3.633,0-3.332,16.372-2.288,19.329Z" transform="translate(0.158 -323.859)" fill="url(#linear-gradient-3)"/>
    <g transform="matrix(1, 0, 0, 1, 0, -1)" filter="url(#Path_155823)">
      <path id="Path_155823-2" data-name="Path 155823" d="M132.733,385.149l-.3-3.49-.974-2.466-1.415-.637-1.345.24-1.867,1.672-1.345,1.745.151-7.063v3.114s1.776-17.511,0-24.145-8.019-17.991-18.035-22.484c-6.243-2.8-14.2-3.49-19.33-3.615-5.119.125-13.087.815-19.33,3.615-10.016,4.493-16.259,15.86-18.035,22.484s0,24.145,0,24.145l.08-3.124.151,7.063-1.345-1.745-1.867-1.672-1.345-.24-1.415.637-.974,2.466-.3,3.49-.341,4.9.572,5.433,2.128,6.645,3.593,6.791,2.8,1.5,1.566-.449,2.971,16.027,3.834,8.149,3.553,4.378,6.815,7.846,6.253,4.378a27.648,27.648,0,0,0,10.638,1.546,27.648,27.648,0,0,0,10.639-1.546l6.253-4.378,6.815-7.846,3.553-4.378,3.834-8.149,3.051-16.017,1.566.449,2.8-1.5,3.593-6.791,2.128-6.645.572-5.433Z" transform="translate(0.16 -327.02)" fill="url(#radial-gradient)"/>
    </g>
    <path id="Path_155825" data-name="Path 155825" d="M123.86,404.053c-.542-1.8.823-7.209.823-7.209a4.718,4.718,0,0,1,.09-.522l.713-3.009a2.038,2.038,0,0,0,.05-.24l.411-2.34a4.169,4.169,0,0,0,.07-.794v-4.1a4.427,4.427,0,0,1,.994-2.811l.612-.752a4.332,4.332,0,0,0,.482-.731l.341-.648a3.932,3.932,0,0,1,.422-.648l.773-1h.723l.4,1.024a4.059,4.059,0,0,1,.251.909l.652,3.939a4.624,4.624,0,0,1,.06.742v2.33a4.661,4.661,0,0,1-.12,1.055l-.793,3.291a4.684,4.684,0,0,1-.281.825l-1.2,2.612a4.474,4.474,0,0,0-.311.94l-.321,1.5a4.383,4.383,0,0,1-1.857,2.748l-.813.533a4.1,4.1,0,0,0-.943.846s-1.1,1.975-1.244,1.5Z" transform="translate(0.45 -325.728)" fill="#d3937d"/>
    <path id="Path_155826" data-name="Path 155826" d="M126.87,395.032c-.271-.9.411-3.6.411-3.6a1.179,1.179,0,0,1,.04-.261l.351-1.5a.764.764,0,0,0,.02-.125l.211-1.17a2.541,2.541,0,0,0,.03-.4v-2.048a2.254,2.254,0,0,1,.492-1.4l.311-.376a2.848,2.848,0,0,0,.241-.366l.171-.324a2.221,2.221,0,0,1,.211-.324l.391-.5h.361l.2.512a2.4,2.4,0,0,1,.13.46l.331,1.964a2.372,2.372,0,0,1,.03.376v1.16a2.252,2.252,0,0,1-.06.522l-.391,1.64a1.76,1.76,0,0,1-.141.407l-.6,1.306a2.591,2.591,0,0,0-.161.47l-.161.752a2.159,2.159,0,0,1-.923,1.369l-.411.272a2.3,2.3,0,0,0-.472.418s-.552.993-.622.752Z" transform="translate(0.461 -325.575)" fill="#dda494"/>
    <path id="Path_155827" data-name="Path 155827" d="M52.549,404.042c1.114-1.379-.843-7.324-.843-7.324a2.166,2.166,0,0,0-.05-.272L50.9,393.26l-.03-.125-.462-2.57a2.944,2.944,0,0,1-.04-.418v-5.015a2.382,2.382,0,0,0-.532-1.5l-1.2-1.484a2.659,2.659,0,0,1-.261-.4l-.522-.993a1.984,1.984,0,0,0-.221-.345l-.883-1.149h-.723l-.482,1.223a2.079,2.079,0,0,0-.13.491L44.69,385.3a2.646,2.646,0,0,0-.03.4v2.434a5.2,5.2,0,0,0,.14,1.181l.823,3.427a2.791,2.791,0,0,0,.151.439l1.385,3.009a2.934,2.934,0,0,1,.171.5l.542,2.56a2.287,2.287,0,0,0,.994,1.463l1.756,1.149a2.1,2.1,0,0,1,.5.449s1.084,2.173,1.435,1.734Z" transform="translate(0.162 -325.726)" fill="#e7a286"/>
    <path id="Path_155828" data-name="Path 155828" d="M49.452,395.7c.6-.648-.181-3.688-.181-3.688a.321.321,0,0,0-.02-.136l-.271-1.619v-.063l-.141-1.3v-.209l.13-1.933.04-.575a1.2,1.2,0,0,0-.211-.763l-.552-.784a1.4,1.4,0,0,1-.12-.209l-.231-.512a1,1,0,0,0-.1-.178l-.4-.606-.361-.021-.281.6a.961.961,0,0,0-.08.24l-.5,2.131a1.171,1.171,0,0,0-.03.2l-.08,1.212a2.965,2.965,0,0,0,.03.6l.3,1.734a.975.975,0,0,0,.06.23l.592,1.546a1.966,1.966,0,0,1,.07.261l.191,1.3a1.114,1.114,0,0,0,.452.763l.833.637a1.34,1.34,0,0,1,.241.241s.472,1.118.662.919Z" transform="translate(0.167 -325.553)" fill="#edae9d"/>
  </g>
</svg>
