<svg xmlns="http://www.w3.org/2000/svg" width="120.97" height="243.501" viewBox="0 0 120.97 243.501">
  <path id="L_Thumb" d="M1177.539,383.85c2.535,7.09,3.724,55.064,1.151,70.549s-6.023,18.194-8.179,32.553-.607,7.582,2.846,23.912,5.746,21.464,7.49,41.143-.611,32.38-2.156,38.411,1.327,11.985-5.333,16.371-12.4,3.163-31.489,3.614-62.694,1.337-69.749,0-8.941-.041-10.708-6.433-.54-66.576,0-79.055,3.376-7.268,10.275-15.309A182.856,182.856,0,0,1,1089,492.753s9.319-4.037,12.367-9.642-.851-24.429,2.682-49.329,7.138-43.364,11.442-49.932,5.685-9.109,14.7-13.042,11.931-3.425,21.371-2.689a52.847,52.847,0,0,1,17.387,4.7A24.179,24.179,0,0,1,1177.539,383.85Z" transform="translate(-1060.492 -367.608)" fill="#ff0202" opacity="0.4"/>
</svg>
