<svg xmlns="http://www.w3.org/2000/svg" xmlns:xlink="http://www.w3.org/1999/xlink" width="139" height="171" viewBox="0 0 139 171">
  <defs>
    <clipPath id="clip-path">
      <rect id="Rectangle_7212" data-name="Rectangle 7212" width="139" height="171" fill="#fff"/>
    </clipPath>
    <linearGradient id="linear-gradient" x1="0.5" x2="0.5" y2="1" gradientUnits="objectBoundingBox">
      <stop offset="0" stop-color="#ffe9e0"/>
      <stop offset="1" stop-color="#fdcfac"/>
    </linearGradient>
  </defs>
  <g id="Mask_Group_35" data-name="Mask Group 35" clip-path="url(#clip-path)">
    <g id="Group_58376" data-name="Group 58376" transform="translate(12.303 32.001)">
      <g id="Group_58375" data-name="Group 58375">
        <path id="Path_155979" data-name="Path 155979" d="M127.013,161.471c-.911-2.288,15.448-8.109,15.448-8.109s5.088,5.038-8.076,2.934c-9.29.979-12.427-9.789-13.141-13.869-1.307-7.467-2.848-18.935-2.848-18.935V45.868a12.78,12.78,0,1,0-25.556,0v80.813l-2.977.4V22.99a12.78,12.78,0,1,0-25.556,0v107.9c-.578.094-1.159.187-1.738.284V48.2a12.78,12.78,0,1,0-25.556,0v87.788c-.758.166-1.5.336-2.236.5V86.437a11.539,11.539,0,1,0-23.075,0v61.4c0,.3-.023,13.343,0,13.635" transform="translate(-11.691 -10)" fill="#edaa7a"/>
        <path id="Path_155980" data-name="Path 155980" d="M28.219,20.38c.7,2,2.215,2.43,4.376,2.309s10.787.756,10.955-.508C44.087,18.107,45.4,5.2,38.227,3.012s-9.717,3.752-10.1,5.777c-.1.534-.275,10.537.093,11.591" transform="translate(29.856 2.79)" fill="url(#linear-gradient)"/>
        <path id="Path_155981" data-name="Path 155981" d="M41.8,37.88c.7,2,2.215,2.43,4.376,2.309s10.787.756,10.955-.508c.537-4.073,1.849-16.98-5.322-19.168s-9.717,3.752-10.1,5.777c-.1.534-.275,10.537.093,11.591" transform="translate(44.338 8.367)" fill="url(#linear-gradient)"/>
        <path id="Path_155982" data-name="Path 155982" d="M14.969,32.464c.7,2,2.215,2.43,4.376,2.309s10.787.756,10.955-.508c.537-4.073,1.849-16.98-5.322-19.168s-9.717,3.752-10.1,5.777c-.1.534-.275,10.537.093,11.591" transform="translate(15.73 16.09)" fill="url(#linear-gradient)"/>
        <path id="Path_155983" data-name="Path 155983" d="M2.533,49.183c.63,1.8,2,2.193,3.946,2.08s9.725.685,9.878-.456c.481-3.674,1.667-15.31-4.8-17.282S2.8,36.9,2.451,38.732c-.093.481-.25,9.5.083,10.451" transform="translate(2.496 36.425)" fill="url(#linear-gradient)"/>
      </g>
    </g>
  </g>
</svg>
