<svg id="MOSIP_Logo" data-name="MOSIP Logo" xmlns="http://www.w3.org/2000/svg" xmlns:xlink="http://www.w3.org/1999/xlink" width="50.929" height="54" viewBox="0 0 50.929 54">
  <defs>
    <clipPath id="clip-path">
      <path id="Path_155566" data-name="Path 155566" d="M78.893,71.354a4.443,4.443,0,0,1-.835,1.637,7.113,7.113,0,0,1-3.317,1.993.953.953,0,0,0-.406.212,1.028,1.028,0,0,0-.187.657A3.97,3.97,0,0,1,73.39,78a2.4,2.4,0,0,1-1.966.969,4.586,4.586,0,0,1-1.01-.234,34.4,34.4,0,0,0-7.139-1.18,13.291,13.291,0,0,1-4.283-.813c-1.208-.523-2.724-1.782-2.614-3.252a21.2,21.2,0,0,1,.494-5.2A7.586,7.586,0,0,1,57.454,67,25.772,25.772,0,1,0,89.118,92.045,25.887,25.887,0,0,0,78.893,71.354ZM63.67,105.3A13.253,13.253,0,1,1,76.74,92.045,13.165,13.165,0,0,1,63.67,105.3Z" transform="translate(-38.2 -67)"/>
    </clipPath>
    <clipPath id="clip-path-2">
      <path id="Path_155567" data-name="Path 155567" d="M78.893,71.354a4.443,4.443,0,0,1-.835,1.637,7.113,7.113,0,0,1-3.317,1.993.953.953,0,0,0-.406.212,1.028,1.028,0,0,0-.187.657A3.97,3.97,0,0,1,73.39,78a2.4,2.4,0,0,1-1.966.969,4.586,4.586,0,0,1-1.01-.234,34.4,34.4,0,0,0-7.139-1.18,13.291,13.291,0,0,1-4.283-.813c-1.208-.523-2.724-1.782-2.614-3.252a21.2,21.2,0,0,1,.494-5.2A7.587,7.587,0,0,1,57.454,67,25.772,25.772,0,1,0,89.118,92.045,25.887,25.887,0,0,0,78.893,71.354ZM63.67,105.3A13.253,13.253,0,1,1,76.74,92.045,13.165,13.165,0,0,1,63.67,105.3Z" transform="translate(-38.2 -67)"/>
    </clipPath>
    <clipPath id="clip-path-16">
      <path id="Path_155581" data-name="Path 155581" d="M63.759,60.1A25.811,25.811,0,1,0,89.218,85.908,25.638,25.638,0,0,0,63.759,60.1Zm0,39.058a13.251,13.251,0,1,1,13.07-13.249A13.164,13.164,0,0,1,63.759,99.158Z" transform="translate(-38.3 -60.1)"/>
    </clipPath>
  </defs>
  <g id="Group_57523" data-name="Group 57523">
    <g id="Group_57515" data-name="Group 57515">
      <g id="Group_57514" data-name="Group 57514" transform="translate(0 3.141)">
        <path id="Path_155565" data-name="Path 155565" d="M78.893,71.354a4.443,4.443,0,0,1-.835,1.637,7.113,7.113,0,0,1-3.317,1.993.953.953,0,0,0-.406.212,1.028,1.028,0,0,0-.187.657A3.97,3.97,0,0,1,73.39,78a2.4,2.4,0,0,1-1.966.969,4.586,4.586,0,0,1-1.01-.234,34.4,34.4,0,0,0-7.139-1.18,13.291,13.291,0,0,1-4.283-.813c-1.208-.523-2.724-1.782-2.614-3.252a21.2,21.2,0,0,1,.494-5.2A7.586,7.586,0,0,1,57.454,67,25.772,25.772,0,1,0,89.118,92.045,25.887,25.887,0,0,0,78.893,71.354ZM63.67,105.3A13.253,13.253,0,1,1,76.74,92.045,13.165,13.165,0,0,1,63.67,105.3Z" transform="translate(-38.2 -67)" fill="#fec401"/>
        <g id="Group_57499" data-name="Group 57499" clip-path="url(#clip-path)">
          <ellipse id="Ellipse_1137" data-name="Ellipse 1137" cx="10.149" cy="10.29" rx="10.149" ry="10.29" transform="translate(25.207 30.023)" fill="#01a2fd"/>
        </g>
        <g id="Group_57500" data-name="Group 57500" transform="translate(0 0)" clip-path="url(#clip-path-2)">
          <ellipse id="Ellipse_1138" data-name="Ellipse 1138" cx="4.152" cy="4.209" rx="4.152" ry="4.209" transform="translate(2.131 17.45)" fill="#f97707"/>
        </g>
        <g id="Group_57501" data-name="Group 57501" transform="translate(0)" clip-path="url(#clip-path)">
          <ellipse id="Ellipse_1139" data-name="Ellipse 1139" cx="7.535" cy="7.639" rx="7.535" ry="7.639" transform="translate(6.337 24.511)" fill="#01a2fd"/>
        </g>
        <g id="Group_57502" data-name="Group 57502" transform="translate(0 0)" clip-path="url(#clip-path)">
          <ellipse id="Ellipse_1140" data-name="Ellipse 1140" cx="7.535" cy="7.639" rx="7.535" ry="7.639" transform="translate(-4.196 7.996)" fill="#014daf"/>
        </g>
        <g id="Group_57503" data-name="Group 57503" transform="translate(0 0)" clip-path="url(#clip-path)">
          <ellipse id="Ellipse_1141" data-name="Ellipse 1141" cx="6.151" cy="6.236" rx="6.151" ry="6.236" transform="translate(11.401 4.321)" fill="#f97707"/>
        </g>
        <g id="Group_57504" data-name="Group 57504" transform="translate(0 0)" clip-path="url(#clip-path)">
          <ellipse id="Ellipse_1142" data-name="Ellipse 1142" cx="6.096" cy="6.181" rx="6.096" ry="6.181" transform="translate(9.402 -4.187)" fill="#01a2fd"/>
        </g>
        <g id="Group_57505" data-name="Group 57505" transform="translate(0 0)" clip-path="url(#clip-path)">
          <ellipse id="Ellipse_1143" data-name="Ellipse 1143" cx="6.151" cy="6.236" rx="6.151" ry="6.236" transform="translate(38.98 7.962)" fill="#f97707"/>
        </g>
        <g id="Group_57506" data-name="Group 57506" transform="translate(0)" clip-path="url(#clip-path)">
          <ellipse id="Ellipse_1144" data-name="Ellipse 1144" cx="4.075" cy="4.132" rx="4.075" ry="4.132" transform="translate(39.814 16.081)" fill="#01a2fd"/>
        </g>
        <g id="Group_57507" data-name="Group 57507" transform="translate(0 0)" clip-path="url(#clip-path)">
          <ellipse id="Ellipse_1145" data-name="Ellipse 1145" cx="4.075" cy="4.132" rx="4.075" ry="4.132" transform="translate(28.985 6.392)" fill="#014daf"/>
        </g>
        <g id="Group_57508" data-name="Group 57508" transform="translate(0 0)" clip-path="url(#clip-path)">
          <ellipse id="Ellipse_1146" data-name="Ellipse 1146" cx="2.911" cy="2.951" rx="2.911" ry="2.951" transform="translate(23.043 -0.334)" fill="#014daf"/>
        </g>
        <g id="Group_57509" data-name="Group 57509" clip-path="url(#clip-path)">
          <ellipse id="Ellipse_1147" data-name="Ellipse 1147" cx="6.151" cy="6.236" rx="6.151" ry="6.236" transform="translate(10.577 38.297)" fill="#f97707"/>
        </g>
        <g id="Group_57510" data-name="Group 57510" transform="translate(0)" clip-path="url(#clip-path)">
          <ellipse id="Ellipse_1148" data-name="Ellipse 1148" cx="4.547" cy="4.61" rx="4.547" ry="4.61" transform="translate(-1.812 28.542)" fill="#014daf"/>
        </g>
        <g id="Group_57511" data-name="Group 57511" clip-path="url(#clip-path)">
          <ellipse id="Ellipse_1149" data-name="Ellipse 1149" cx="8.302" cy="8.418" rx="8.302" ry="8.418" transform="translate(18.352 38.165)" fill="#014daf"/>
        </g>
        <g id="Group_57512" data-name="Group 57512" transform="translate(0)" clip-path="url(#clip-path)">
          <ellipse id="Ellipse_1150" data-name="Ellipse 1150" cx="4.152" cy="4.209" rx="4.152" ry="4.209" transform="translate(38.529 29.433)" fill="#014daf"/>
        </g>
        <g id="Group_57513" data-name="Group 57513" transform="translate(0)" clip-path="url(#clip-path)">
          <ellipse id="Ellipse_1151" data-name="Ellipse 1151" cx="4.152" cy="4.209" rx="4.152" ry="4.209" transform="translate(48.293 22.952)" fill="#f97707"/>
        </g>
      </g>
      <circle id="Ellipse_1152" data-name="Ellipse 1152" cx="2.23" cy="2.23" r="2.23" transform="translate(31.17 1.79)" fill="#f97707"/>
      <circle id="Ellipse_1153" data-name="Ellipse 1153" cx="1.329" cy="1.329" r="1.329" transform="translate(27.03)" fill="#fec401"/>
      <circle id="Ellipse_1154" data-name="Ellipse 1154" cx="2.23" cy="2.23" r="2.23" transform="translate(36.695 6.601)" fill="#014daf"/>
    </g>
    <g id="Group_57522" data-name="Group 57522" transform="translate(0.011 2.383)">
      <g id="Group_57516" data-name="Group 57516" transform="translate(0)" clip-path="url(#clip-path-16)">
        <ellipse id="Ellipse_1155" data-name="Ellipse 1155" cx="3.581" cy="3.63" rx="3.581" ry="3.63" transform="translate(22.889 8.94)" fill="#fec401"/>
      </g>
      <g id="Group_57517" data-name="Group 57517" transform="translate(0)" clip-path="url(#clip-path-16)">
        <ellipse id="Ellipse_1156" data-name="Ellipse 1156" cx="4.624" cy="4.687" rx="4.624" ry="4.687" transform="translate(29.139 7.694)" fill="#01a2fd"/>
      </g>
      <g id="Group_57518" data-name="Group 57518" transform="translate(0)" clip-path="url(#clip-path-16)">
        <ellipse id="Ellipse_1157" data-name="Ellipse 1157" cx="2.23" cy="2.26" rx="2.23" ry="2.26" transform="translate(29.688 5.623)" fill="#fec401"/>
      </g>
      <g id="Group_57519" data-name="Group 57519" transform="translate(0)" clip-path="url(#clip-path-16)">
        <ellipse id="Ellipse_1158" data-name="Ellipse 1158" cx="2.867" cy="2.906" rx="2.867" ry="2.906" transform="translate(23.339 1.659)" fill="#014daf"/>
      </g>
      <g id="Group_57520" data-name="Group 57520" transform="translate(0)" clip-path="url(#clip-path-16)">
        <ellipse id="Ellipse_1159" data-name="Ellipse 1159" cx="6.151" cy="6.235" rx="6.151" ry="6.235" transform="translate(11.335 5.2)" fill="#f97707"/>
      </g>
      <g id="Group_57521" data-name="Group 57521" transform="translate(0)" clip-path="url(#clip-path-16)">
        <ellipse id="Ellipse_1160" data-name="Ellipse 1160" cx="6.096" cy="6.179" rx="6.096" ry="6.179" transform="translate(9.347 -3.307)" fill="#01a2fd"/>
      </g>
    </g>
  </g>
</svg>
