<svg id="No_internet_connection" data-name="No internet connection" xmlns="http://www.w3.org/2000/svg" width="153.058" height="153.058" viewBox="0 0 153.058 153.058">
  <path id="Path_155692" data-name="Path 155692" d="M75.616,35.623c23.139.359,42.448,9.136,57.653,26.693a5.341,5.341,0,0,1-.495,7.713,5.271,5.271,0,0,1-7.524-.7,66.158,66.158,0,0,0-19.445-15.673,64.429,64.429,0,0,0-71.988,7.833,98.585,98.585,0,0,0-7.8,7.78c-2.183,2.314-5.4,2.685-7.71.7a5.366,5.366,0,0,1-.373-7.715,75.143,75.143,0,0,1,48.1-26.169c1.513-.209,3.039-.372,4.564-.441,1.67-.075,3.347-.017,5.02-.017" transform="translate(0.864 1.867)" fill="#dedede"/>
  <path id="Path_155693" data-name="Path 155693" d="M76.7,56.008c14.626.379,28.375,6.626,39.2,19.129a5.219,5.219,0,0,1-.485,7.684,5.288,5.288,0,0,1-7.6-.736c-5.644-6.535-12.488-11.329-20.83-13.581-17-4.59-31.7-.4-44.011,12.18-.458.468-.88.971-1.316,1.461a5.346,5.346,0,1,1-8.075-7A53.714,53.714,0,0,1,50.818,61.625c7.569-3.756,15.591-5.582,25.886-5.617" transform="translate(1.688 2.937)" fill="#dedede"/>
  <path id="Path_155694" data-name="Path 155694" d="M99.942,91.521a5.351,5.351,0,0,1-3.418,5,5.279,5.279,0,0,1-5.96-1.5A22.664,22.664,0,0,0,82.4,88.957c-8.781-3.72-18.467-1.409-25,5.966a5.175,5.175,0,0,1-5.715,1.706,5.339,5.339,0,0,1-2.48-8.576,32.118,32.118,0,0,1,49.443.089,14.827,14.827,0,0,1,1.576,3.25l-.28.129" transform="translate(2.512 4.015)" fill="#dedede"/>
  <path id="Path_155695" data-name="Path 155695" d="M73.188,118.538a10.734,10.734,0,1,1,10.7-10.689,10.679,10.679,0,0,1-10.7,10.689" transform="translate(3.274 5.091)" fill="#dedede"/>
  <path id="Path_155696" data-name="Path 155696" d="M76.53,0a76.529,76.529,0,1,0,76.529,76.529A76.616,76.616,0,0,0,76.53,0M10.524,76.529a65.965,65.965,0,0,1,110.6-48.61l-93.2,93.206a65.746,65.746,0,0,1-17.395-44.6M76.53,142.534a65.667,65.667,0,0,1-40.89-14.248L128.287,35.64A65.952,65.952,0,0,1,76.53,142.534" fill="#ededed"/>
</svg>
