<svg xmlns="http://www.w3.org/2000/svg" width="25.248" height="24.516" viewBox="0 0 25.248 24.516">
  <path id="person_FILL0_wght400_GRAD0_opsz48_1_" data-name="person_FILL0_wght400_GRAD0_opsz48 (1)" d="M172.324-769.446a5.63,5.63,0,0,1-4.159-1.617,5.63,5.63,0,0,1-1.617-4.159,5.63,5.63,0,0,1,1.617-4.159A5.63,5.63,0,0,1,172.324-781a5.63,5.63,0,0,1,4.159,1.617,5.63,5.63,0,0,1,1.617,4.159,5.63,5.63,0,0,1-1.617,4.159A5.63,5.63,0,0,1,172.324-769.446ZM160-757.084v-3.62a4.238,4.238,0,0,1,.732-2.5,4.7,4.7,0,0,1,1.887-1.579,28.942,28.942,0,0,1,4.949-1.733,20.008,20.008,0,0,1,4.756-.578,19.164,19.164,0,0,1,4.737.6,32.228,32.228,0,0,1,4.926,1.721,4.651,4.651,0,0,1,1.933,1.578,4.228,4.228,0,0,1,.727,2.5v3.62Zm2.311-2.311h20.026V-760.7a2.11,2.11,0,0,0-.366-1.175,2.319,2.319,0,0,0-.905-.828,20.453,20.453,0,0,0-4.506-1.637,19.927,19.927,0,0,0-4.236-.443,20.469,20.469,0,0,0-4.275.443,19.563,19.563,0,0,0-4.506,1.637,2.188,2.188,0,0,0-.886.828,2.193,2.193,0,0,0-.347,1.175Zm10.013-12.362a3.366,3.366,0,0,0,2.484-.982,3.367,3.367,0,0,0,.982-2.484,3.367,3.367,0,0,0-.982-2.484,3.367,3.367,0,0,0-2.484-.982,3.367,3.367,0,0,0-2.484.982,3.367,3.367,0,0,0-.982,2.484,3.367,3.367,0,0,0,.982,2.484A3.366,3.366,0,0,0,172.324-771.757ZM172.324-775.223ZM172.324-759.395Z" transform="translate(-159.7 781.3)" fill="#4e4e4e" stroke="#4e4e4e" stroke-width="0.6"/>
</svg>
