<svg xmlns="http://www.w3.org/2000/svg" width="120.969" height="243.501" viewBox="0 0 120.969 243.501">
  <path id="R_Thumb" d="M1064.414,383.85c-2.535,7.09-3.724,55.064-1.151,70.549s6.023,18.194,8.179,32.553.607,7.582-2.846,23.912-5.746,21.464-7.49,41.143.611,32.38,2.156,38.411-1.327,11.985,5.333,16.371,12.4,3.163,31.489,3.614,62.694,1.337,69.748,0,8.941-.041,10.708-6.433.54-66.576,0-79.055-3.376-7.268-10.275-15.309a182.848,182.848,0,0,0-17.319-16.852s-9.319-4.037-12.367-9.642.851-24.43-2.682-49.329-7.138-43.364-11.442-49.932-5.685-9.109-14.7-13.042-11.931-3.425-21.371-2.689a52.846,52.846,0,0,0-17.387,4.7A24.179,24.179,0,0,0,1064.414,383.85Z" transform="translate(-1060.492 -367.608)" fill="#ff0202" opacity="0.4"/>
</svg>
