<svg id="Settings" xmlns="http://www.w3.org/2000/svg" width="30" height="30" viewBox="0 0 30 30">
  <path id="Path_155620" data-name="Path 155620" d="M0,0H30V30H0Z" fill="none"/>
  <path id="Path_155621" data-name="Path 155621" d="M24.722,16.274A10.067,10.067,0,0,0,24.814,15a10.067,10.067,0,0,0-.092-1.274l2.761-2.145a.653.653,0,0,0,.157-.832l-2.617-4.5a.654.654,0,0,0-.576-.325.615.615,0,0,0-.222.039l-3.258,1.3a9.575,9.575,0,0,0-2.211-1.274l-.5-3.445A.637.637,0,0,0,17.618,2H12.384a.637.637,0,0,0-.641.546l-.5,3.445A10.068,10.068,0,0,0,9.034,7.265l-3.258-1.3a.745.745,0,0,0-.236-.039.649.649,0,0,0-.563.325l-2.617,4.5a.638.638,0,0,0,.157.832l2.761,2.145A10.245,10.245,0,0,0,5.188,15a10.245,10.245,0,0,0,.092,1.274L2.518,18.419a.653.653,0,0,0-.157.832l2.617,4.5a.654.654,0,0,0,.576.325.615.615,0,0,0,.222-.039l3.258-1.3a9.574,9.574,0,0,0,2.211,1.274l.5,3.445a.637.637,0,0,0,.641.546h5.234a.637.637,0,0,0,.641-.546l.5-3.445a10.068,10.068,0,0,0,2.211-1.274l3.258,1.3a.745.745,0,0,0,.236.039.649.649,0,0,0,.563-.325l2.617-4.5a.653.653,0,0,0-.157-.832Zm-2.591-2.223A6.9,6.9,0,0,1,22.2,15c0,.273-.026.559-.065.949l-.183,1.469,1.164.91,1.413,1.092-.916,1.573-1.662-.663-1.361-.546-1.178.884a7.675,7.675,0,0,1-1.636.949l-1.387.559-.209,1.469L15.917,25.4H14.085l-.249-1.755-.209-1.469-1.387-.559a7.436,7.436,0,0,1-1.609-.923l-1.191-.91-1.387.559-1.662.663-.916-1.573,1.413-1.092,1.164-.91L7.87,15.962c-.039-.4-.065-.7-.065-.962s.026-.559.065-.949l.183-1.469-1.164-.91L5.475,10.58l.916-1.573,1.662.663,1.361.546,1.178-.884a7.675,7.675,0,0,1,1.636-.949l1.387-.559.209-1.469L14.085,4.6H15.9l.249,1.755.209,1.469,1.387.559a7.436,7.436,0,0,1,1.609.923l1.191.91,1.387-.559L23.6,8.994l.916,1.573-1.4,1.105-1.164.91.183,1.469ZM15,9.8A5.2,5.2,0,1,0,20.234,15,5.215,5.215,0,0,0,15,9.8Zm0,7.8A2.6,2.6,0,1,1,17.618,15,2.616,2.616,0,0,1,15,17.6Z" fill="#4e4e4e"/>
</svg>
