<svg xmlns="http://www.w3.org/2000/svg" xmlns:xlink="http://www.w3.org/1999/xlink" width="21.246" height="23.3" viewBox="0 0 21.246 23.3">
  <defs>
    <linearGradient id="linear-gradient" x1="0.5" x2="0.5" y2="1" gradientUnits="objectBoundingBox">
      <stop offset="0" stop-color="#214fbf"/>
      <stop offset="1" stop-color="#1c43a1"/>
    </linearGradient>
  </defs>
  <path id="Updating_Operator_Biometrics" data-name="Updating Operator Biometrics" d="M6.061,12.266a.189.189,0,0,1-.111-.182.525.525,0,0,1,.056-.237,11.731,11.731,0,0,1,4.375-3.714,12.563,12.563,0,0,1,5.657-1.313,12.877,12.877,0,0,1,5.671,1.285,11.688,11.688,0,0,1,4.417,3.686.357.357,0,0,1,.07.223.317.317,0,0,1-.1.168.283.283,0,0,1-.209.084.31.31,0,0,1-.237-.14,10.916,10.916,0,0,0-4.194-3.519,12.326,12.326,0,0,0-5.42-1.229,11.949,11.949,0,0,0-5.378,1.243,11.451,11.451,0,0,0-4.18,3.5.457.457,0,0,1-.209.168A.283.283,0,0,1,6.061,12.266ZM18.894,26.117a7.477,7.477,0,0,1-4.264-2.681,7.726,7.726,0,0,1-1.853-5.222,2.892,2.892,0,0,1,.961-2.206,3.4,3.4,0,0,1,4.6,0,2.892,2.892,0,0,1,.961,2.206A2.293,2.293,0,0,0,20.12,20a2.8,2.8,0,0,0,1.909.726A2.66,2.66,0,0,0,23.882,20a2.327,2.327,0,0,0,.794-1.787,7.46,7.46,0,0,0-2.55-5.753,8.742,8.742,0,0,0-6.089-2.318,8.742,8.742,0,0,0-6.089,2.318A7.46,7.46,0,0,0,7.4,18.214a12.92,12.92,0,0,0,.153,1.745A12.247,12.247,0,0,0,8.207,22.4a.206.206,0,0,1,0,.209.609.609,0,0,1-.139.126.346.346,0,0,1-.237.028A.251.251,0,0,1,7.65,22.6a15.788,15.788,0,0,1-.571-2.164,11.9,11.9,0,0,1-.209-2.22A8.131,8.131,0,0,1,9.6,12.057,9.111,9.111,0,0,1,16.037,9.5a9.248,9.248,0,0,1,6.507,2.513,8.111,8.111,0,0,1,2.717,6.2,2.881,2.881,0,0,1-.947,2.178,3.211,3.211,0,0,1-2.285.894,3.344,3.344,0,0,1-2.341-.894,2.844,2.844,0,0,1-.975-2.178,2.357,2.357,0,0,0-.794-1.815,2.7,2.7,0,0,0-1.881-.726,2.745,2.745,0,0,0-1.895.726,2.339,2.339,0,0,0-.808,1.815A6.953,6.953,0,0,0,15.09,23.06a9.4,9.4,0,0,0,4.375,2.723.342.342,0,0,1,.209.14.277.277,0,0,1,.014.2.29.29,0,0,1-.111.2,2.741,2.741,0,0,1-.683-.2ZM9.517,6.206a.241.241,0,0,1-.209.014.4.4,0,0,1-.125-.126.228.228,0,0,1-.056-.168.188.188,0,0,1,.084-.168,14.421,14.421,0,0,1,3.33-1.313A14.022,14.022,0,0,1,16.037,4a14.24,14.24,0,0,1,3.553.447A16.134,16.134,0,0,1,22.92,5.7a.213.213,0,0,1,.153.168.279.279,0,0,1-.042.2.446.446,0,0,1-.153.14.263.263,0,0,1-.237,0,16.748,16.748,0,0,0-3.2-1.187,13.51,13.51,0,0,0-3.4-.433,14.047,14.047,0,0,0-3.372.4A13.362,13.362,0,0,0,9.517,6.206Zm3.734,19.8a13.949,13.949,0,0,1-2.522-3.519,9.574,9.574,0,0,1-.906-4.273,5.506,5.506,0,0,1,1.825-4.189,6.2,6.2,0,0,1,4.389-1.7,6.3,6.3,0,0,1,4.417,1.7,5.468,5.468,0,0,1,1.853,4.189.247.247,0,0,1-.279.279.337.337,0,0,1-.223-.07.257.257,0,0,1-.084-.209,4.933,4.933,0,0,0-1.686-3.8,5.739,5.739,0,0,0-4-1.536,5.64,5.64,0,0,0-3.971,1.536,4.97,4.97,0,0,0-1.658,3.8,9.121,9.121,0,0,0,.822,4.049,13.411,13.411,0,0,0,2.438,3.351.257.257,0,0,1,.1.209.32.32,0,0,1-.1.182.464.464,0,0,1-.181.1A.209.209,0,0,1,13.251,26.006Zm8.527-2.039a6.109,6.109,0,0,1-4.25-1.634,5.328,5.328,0,0,1-1.8-4.119.338.338,0,0,1,.07-.223.3.3,0,0,1,.418,0,.338.338,0,0,1,.07.223,4.758,4.758,0,0,0,1.658,3.728,5.611,5.611,0,0,0,3.832,1.466q.223,0,.529-.028t.669-.084a.254.254,0,0,1,.223.042.343.343,0,0,1,.111.154.277.277,0,0,1-.014.2.238.238,0,0,1-.181.112,3.873,3.873,0,0,1-.878.154q-.376.014-.46.014Z" transform="translate(-5.45 -3.5)" stroke="#1d45a6" stroke-width="1" fill="url(#linear-gradient)"/>
</svg>
