<svg width="42" height="53" viewBox="0 0 42 53" fill="none" xmlns="http://www.w3.org/2000/svg">
<path d="M5.99794 9.85806L21.7539 3.41406L38.6639 11.0781L38.0229 32.9111L29.1979 45.4891L19.9719 49.8231L5.17094 37.8591L2.83594 11.9811L5.99794 9.85806Z" fill="white"/>
<path d="M20.8303 0.837891L0.320312 8.52889V24.1379C0.320312 37.0849 9.06331 49.1609 20.8303 52.1089C32.5983 49.1609 41.3403 37.0849 41.3403 24.1379V8.52889L20.8303 0.837891ZM36.2133 24.1379C36.2133 34.3929 29.6753 43.8789 20.8303 46.7759C11.9853 43.8839 5.44831 34.4239 5.44831 24.1379V12.0929L20.8303 6.32489L36.2133 12.0939V24.1379Z" fill="#1C429F"/>
<path d="M20.8315 26.5795C23.6075 26.5795 29.1805 27.9795 29.1805 30.7535V31.0875C28.1483 32.2924 26.8675 33.2597 25.4262 33.9229C23.9848 34.586 22.4171 34.9294 20.8305 34.9294C19.2439 34.9294 17.6761 34.586 16.2348 33.9229C14.7934 33.2597 13.5127 32.2924 12.4805 31.0875V30.7535C12.4825 27.9775 18.0555 26.5795 20.8315 26.5795ZM20.8315 24.4925C20.0059 24.4925 19.1989 24.2477 18.5125 23.7891C17.8261 23.3304 17.2911 22.6786 16.9752 21.9159C16.6593 21.1532 16.5766 20.3139 16.7377 19.5042C16.8987 18.6945 17.2963 17.9508 17.88 17.3671C18.4637 16.7833 19.2075 16.3858 20.0172 16.2247C20.8268 16.0637 21.6661 16.1463 22.4288 16.4623C23.1915 16.7782 23.8434 17.3132 24.302 17.9996C24.7607 18.686 25.0055 19.493 25.0055 20.3185C25.002 21.4245 24.5612 22.4842 23.7791 23.2662C22.9971 24.0482 21.9374 24.4891 20.8315 24.4925Z" fill="#1C429F"/>
</svg>
