<svg xmlns="http://www.w3.org/2000/svg" width="26" height="26" viewBox="0 0 26 26">
  <path id="Web-SVG-Icon-7890" d="M3.966,18.9h6.058a34.143,34.143,0,0,1,0-7.8H3.966a11.756,11.756,0,0,0,0,7.8Zm.55,1.3a11.722,11.722,0,0,0,7.92,6.218A15.023,15.023,0,0,1,10.208,20.2Zm21.518-1.3a11.756,11.756,0,0,0,0-7.8H19.977A33.24,33.24,0,0,1,20.2,15a33.239,33.239,0,0,1-.223,3.9Zm-.55,1.3H19.792a15.023,15.023,0,0,1-2.228,6.218,11.722,11.722,0,0,0,7.92-6.218ZM11.34,18.9H18.66A31.265,31.265,0,0,0,18.9,15a31.265,31.265,0,0,0-.24-3.9H11.34a31.844,31.844,0,0,0,0,7.8Zm.2,1.3c.679,3.858,2.058,6.5,3.465,6.5s2.786-2.642,3.464-6.5ZM4.516,9.8h5.692a15.022,15.022,0,0,1,2.229-6.218A11.722,11.722,0,0,0,4.516,9.8Zm20.968,0a11.722,11.722,0,0,0-7.92-6.218A15.022,15.022,0,0,1,19.792,9.8Zm-13.948,0h6.929C17.786,5.942,16.406,3.3,15,3.3s-2.786,2.642-3.465,6.5ZM15,28A13,13,0,1,1,28,15,13,13,0,0,1,15,28Z" transform="translate(-2 -2)"/>
</svg>
